<?xml version="1.0" encoding="UTF-8"?>
<svg id="Layer_2" data-name="Layer 2" xmlns="http://www.w3.org/2000/svg" xmlns:xlink="http://www.w3.org/1999/xlink" viewBox="0 0 197.88 202.46">
  <defs>
    <style>
      .cls-1 {
        fill: #f9968a;
      }

      .cls-2 {
        fill: #fc6a5a;
      }

      .cls-3 {
        fill: #ea7b6c;
      }

      .cls-4 {
        fill: #e1f0ff;
      }

      .cls-5 {
        clip-path: url(#clippath);
      }

      .cls-6 {
        fill: #161114;
      }

      .cls-7 {
        fill: none;
      }

      .cls-8 {
        fill: #ffac9d;
      }

      .cls-9 {
        fill: #352c38;
      }
    </style>
    <clipPath id="clippath">
      <path class="cls-7" d="m97.26,202.43c-27.72-.62-51.08-10.47-70.11-29.51-12.69-12.69-20.94-27.92-24.75-45.68-3.81-17.77-3.06-35.43,2.23-52.98,5.29-17.55,14.27-32.68,26.96-45.37C50.19,10.28,72.08.67,97.25.03c25.17-.62,48.13,9.42,68.84,30.14,20.31,20.31,30.88,44.21,31.73,71.7.86,27.5-8.67,51.19-28.55,71.07-20.3,20.3-44.31,30.15-72.02,29.5Z"/>
    </clipPath>
  </defs>
  <g id="OBJECTS">
    <g>
      <path class="cls-4" d="m97.26,202.43c-27.72-.62-51.08-10.47-70.11-29.51-12.69-12.69-20.94-27.92-24.75-45.68-3.81-17.77-3.06-35.43,2.23-52.98,5.29-17.55,14.27-32.68,26.96-45.37C50.19,10.28,72.08.67,97.25.03c25.17-.62,48.13,9.42,68.84,30.14,20.31,20.31,30.88,44.21,31.73,71.7.86,27.5-8.67,51.19-28.55,71.07-20.3,20.3-44.31,30.15-72.02,29.5Z"/>
      <g class="cls-5">
        <g>
          <g>
            <g>
              <path class="cls-8" d="m120.34,145.98c-6.83-5.59-.49-37.62-.49-37.62h-38.68s6.34,32.03-.49,37.62c-6.83,5.59-51.66,4.92-47.54,61.25h131.54c5.09-56.48-37.52-55.65-44.35-61.25Z"/>
              <path class="cls-1" d="m118.37,142.78c-3.38-9.86,1.48-34.42,1.48-34.42h-38.68s2.61,13.21,2.67,24.14c9.74,7.36,21.98,10.27,34.53,10.28Z"/>
            </g>
            <path class="cls-2" d="m146.73,155.41c-4.16-1.95-9.07-4.64-14.9-5.55,0,0-5.7,17.65-31.53,17.79-25.83-.14-31.53-17.79-31.53-17.79-6.43.89-11.8,3.65-16.28,5.74,2.22,7.45,6.26,25.61-.87,51.85l48.38.36h0s.3,0,.3,0h.3s0,0,0,0l46.94-.36c-7.19-26.46-3.02-44.73-.81-52.04Z"/>
          </g>
          <g>
            <g>
              <g>
                <path class="cls-1" d="m57.55,95.71c1.9,6.94,7.24,13.09,11.43,11.95,4.2-1.15,5.66-9.16,3.77-16.1-1.9-6.94-6.44-10.18-10.64-9.03-4.2,1.15-6.46,6.25-4.57,13.19Z"/>
                <path class="cls-1" d="m143.05,95.71c-1.9,6.94-7.24,13.09-11.43,11.95-4.2-1.15-5.66-9.16-3.77-16.1,1.9-6.94,6.44-10.18,10.64-9.03,4.2,1.15,6.46,6.25,4.57,13.19Z"/>
              </g>
              <g>
                <g>
                  <path class="cls-9" d="m74.26,49.57s-9-7.33-16.67,2.33c-7.67,9.67-2.67,35.33,10,45.67l6.67-48Z"/>
                  <path class="cls-9" d="m132.2,77.93l1.55,19.64c3.13-4.48,5.43-11.86,6.68-19.56-2.75-.05-5.49-.1-8.24-.08Z"/>
                  <g>
                    <path class="cls-9" d="m72.67,59.44s-.04-.14-.1-.4c-.06-.26-.15-.63-.25-1.11-.2-.97-.44-2.38-.61-4.2-.17-1.81-.27-4.03-.09-6.58.19-2.54.63-5.44,1.73-8.43.53-1.5,1.23-3.03,2.13-4.51.88-1.49,1.95-2.94,3.22-4.26,1.25-1.34,2.69-2.57,4.29-3.62,1.58-1.09,3.28-1.96,5.13-2.75,3.46-1.44,7.83-2.61,12.11-1.47,2.12.55,4.09,1.64,5.71,3.01,1.64,1.35,3.02,2.91,4.29,4.48,1.27,1.57,2.44,3.16,3.71,4.57,1.26,1.42,2.63,2.66,4.2,3.3.78.34,1.61.45,2.46.49l.64-.03h.16s.07-.01.06,0h.09s.36-.06.36-.06l1.43-.2c1.86-.29,3.68-.66,5.51-1.05,1.82-.38,3.63-.77,5.46-.99,1.81-.23,3.67-.33,5.45.06,1.76.37,3.42,1.13,4.7,2.24.36.23.61.57.91.85.28.3.59.57.84.88.47.65.98,1.24,1.38,1.89.76,1.28,1.5,2.51,2.19,3.68.37.55.78,1.03,1.16,1.53.41.46.88.85,1.3,1.26,1.85,1.46,4.11,1.65,5.7,1.02,1.61-.59,2.68-1.49,3.37-2.1.68-.63.99-1.02.99-1.02,0,0-.29.41-.94,1.07-.66.65-1.68,1.61-3.32,2.3-.41.17-.87.28-1.34.39-.49.03-1.01.15-1.55.05-1.1-.04-2.19-.59-3.25-1.24-.47-.41-.98-.8-1.45-1.27-.42-.51-.9-1.02-1.31-1.57-.74-1.13-1.51-2.33-2.32-3.57-.4-.61-.91-1.15-1.37-1.74-.24-.29-.54-.52-.81-.79-.29-.25-.53-.55-.86-.75-1.2-.96-2.67-1.56-4.24-1.83-1.58-.29-3.28-.13-5,.15-1.72.27-3.48.72-5.29,1.17-1.8.45-3.67.9-5.59,1.28l-1.42.26-.36.06-.09.02h-.12s-.2.03-.2.03l-.81.07c-1.09,0-2.22-.11-3.26-.52-2.1-.77-3.76-2.22-5.17-3.69-1.43-1.48-2.67-3.05-3.96-4.52-2.51-2.96-5.32-5.61-8.72-6.35-1.68-.4-3.43-.37-5.16-.04-.43.06-.86.18-1.29.29-.43.11-.85.22-1.25.37-.41.15-.8.27-1.22.43-.43.18-.86.37-1.29.55-1.55.71-3.12,1.55-4.46,2.54-1.38.95-2.59,2.05-3.64,3.23-1.07,1.16-1.95,2.43-2.67,3.72-.74,1.29-1.3,2.61-1.73,3.93-.45,1.31-.75,2.61-.97,3.86-.23,1.25-.35,2.46-.42,3.6-.13,2.28-.02,4.3.16,5.94.18,1.64.42,2.92.6,3.77.09.43.17.75.23.96.05.2.08.3.08.3l-3.85,1.08Z"/>
                    <path class="cls-9" d="m81.19,12.15c.95.51,1.84,1.13,2.65,1.86.8.74,1.53,1.6,2.03,2.65.51,1.03.67,2.29.41,3.48-.28,1.18-.92,2.23-1.69,3.09-.76.87-1.65,1.59-2.57,2.23-.92.65-1.88,1.2-2.86,1.72l-2.78,1.54-1.22.86-.61.42-.55.5c-.35.34-.76.64-1.07,1l-.91,1.09-.68,1.2c-.18.42-.29.86-.46,1.28-.1.44-.14.9-.22,1.35-.02.47,0,.94-.01,1.41.04.48.12.97.16,1.45.07.49.19.99.28,1.48.22,1,.48,2,.78,3.01l.91,3.07c.3,1.04.62,2.08.86,3.15.28,1.05.47,2.15.7,3.23l-2.88.66c-.2-.68-.53-1.5-.89-2.21-.37-.72-.79-1.42-1.28-2.04-.25-.31-.49-.62-.77-.88l-.4-.42-.44-.35c-.15-.11-.29-.25-.45-.35l-.48-.28c-.31-.21-.66-.34-1.01-.46-.17-.06-.34-.15-.52-.19l-.55-.1-.55-.1h-.57c-.76-.06-1.54.15-2.32.27l-1.17.38-.59.19s-.08.03.02-.01l-.04.02-.08.03-.15.07-.31.14c-.45.18-.71.38-1.05.56-.32.21-.66.44-.97.7-1.24,1.02-2.23,2.36-2.96,3.88-.73,1.52-1.19,3.2-1.5,4.91-.31,1.72-.42,3.49-.45,5.26,0,1.77.07,3.56.3,5.35-1-3.46-1.45-7.1-1.2-10.77.12-1.84.5-3.68,1.16-5.47.33-.89.78-1.75,1.29-2.58.55-.8,1.17-1.58,1.9-2.24.36-.34.75-.64,1.16-.94.43-.28.89-.6,1.27-.78.22-.11.34-.19.65-.34l.68-.27,1.36-.52c.98-.2,1.94-.48,2.98-.45l.77-.02.78.11.78.12c.26.05.5.15.75.23.5.16,1,.33,1.45.6l.69.37c.22.14.42.3.63.45l.62.47.55.53c.38.35.69.74,1.01,1.13.63.78,1.15,1.62,1.61,2.48.46.89.82,1.73,1.14,2.76l-2.88.66c-.23-1.01-.41-2.03-.69-3.04-.26-1.01-.53-2.03-.82-3.05l-.88-3.1c-.29-1.04-.56-2.12-.79-3.21-.1-.56-.22-1.11-.29-1.68-.05-.58-.11-1.16-.14-1.74.02-.6.03-1.2.08-1.8.12-.6.21-1.21.37-1.8.22-.58.42-1.17.69-1.72.32-.52.64-1.05.97-1.56l1.19-1.33c.4-.44.89-.75,1.33-1.13l.68-.54.74-.45,1.47-.89,2.93-1.4c.94-.42,1.89-.85,2.77-1.38.88-.51,1.72-1.09,2.43-1.77.7-.68,1.31-1.45,1.62-2.34.3-.89.28-1.87-.04-2.81-.31-.95-.88-1.84-1.55-2.64-.67-.81-1.44-1.56-2.3-2.2Z"/>
                    <path class="cls-9" d="m70.75,60.35s-.02-.12-.07-.35c-.04-.22-.09-.55-.17-.97-.13-.84-.28-2.07-.38-3.63-.09-1.56-.12-3.47.05-5.65.17-2.18.54-4.65,1.36-7.25.79-2.61,2.06-5.34,3.9-7.91,1.87-2.54,4.33-4.88,7.27-6.61,1.44-.91,3.02-1.61,4.62-2.25.9-.34,1.58-.56,2.43-.82.88-.23,1.75-.49,2.64-.62,1.76-.32,3.63-.45,5.49-.17,1.86.26,3.69.91,5.29,1.9,3.21,2.01,5.32,5,7.25,7.73.97,1.38,1.9,2.74,2.9,3.98,1,1.24,2.09,2.32,3.35,3.04,1.24.74,2.66,1.04,4.06.92.77-.07,1.52-.13,2.27-.2.74-.09,1.46-.18,2.18-.27,2.89-.39,5.63-.9,8.23-1.09,2.58-.21,5.07,0,7.03.91,1.97.88,3.28,2.26,4.23,3.42.45.6.79,1.18,1.12,1.66.32.49.51.95.7,1.3.36.71.56,1.09.56,1.09,0,0-.22-.37-.62-1.06-.21-.34-.42-.79-.77-1.25-.35-.46-.72-1.01-1.2-1.58-.99-1.09-2.34-2.34-4.24-3.06-1.89-.73-4.23-.81-6.72-.51-2.51.29-5.21.92-8.11,1.44-1.47.26-2.98.49-4.5.67-1.66.22-3.48-.08-5.03-.91-1.57-.81-2.86-2.02-3.99-3.29-1.13-1.28-2.15-2.63-3.17-3.96-2.02-2.64-4.14-5.26-6.85-6.78-2.67-1.56-5.86-1.82-8.92-1.11-.78.13-1.5.38-2.23.59-.73.25-1.62.57-2.25.84-1.43.63-2.83,1.29-4.07,2.13-2.55,1.6-4.58,3.68-6.13,5.91-1.51,2.26-2.55,4.65-3.17,6.96-1.27,4.64-1.24,8.79-1.03,11.6.11,1.42.27,2.52.39,3.26.07.36.12.64.15.83.04.17.06.26.06.26l-3.9.87Z"/>
                  </g>
                </g>
                <path class="cls-8" d="m65.49,83.26c0,25.41,15.7,51.35,35.08,51.35s35.08-25.94,35.08-51.35-15.7-40.67-35.08-40.67-35.08,15.26-35.08,40.67Z"/>
                <g>
                  <path class="cls-9" d="m73.6,55.57s3.72-4.13,8.17-5.67c5.29-1.82,11.47-.48,11.83,8.67.65,16.35,6,15,12.67,12,6.67-3,13-5.33,14,6s3.33,14.67,10.67,13.67c7.33-1,16.67-2,15.67,8.67,0,0,8.06-15.82-13.67-15.33-15,.33,4.33-22-22.33-20,0,0,15.77-1.84,16.17,11.5.33,11.33,20.17,9.83,22.83,5.83,0,0-14.33,3-17-7.33-2.67-10.33-1-13.67-15.33-17.67l10.33,9,5,13.33s11.33,9.33,17-5.33c0,0-4.33,7.17-9.5,1.17-3.31-3.85,6.33-14.33-7.17-24.17-12.53-9.13-15.67,6-20.67-7.33-7.35-19.6-42.33-13-38.67,13Z"/>
                  <path class="cls-9" d="m73.6,52.24s-2.67-16,15-24.67c17.67-8.67,20,17,32.33,14.67,12.33-2.33,21.69,2.66,22.67,13.33,1.33,14.5,9.33,6.67,9.33,6.67,0,0-5.33,10.67-10.33,5-5.45-6.17-3.33-20.33-23.67-16-24.86,5.3-31-28-45.33,1Z"/>
                  <path class="cls-9" d="m75.97,50.85s.35-.27,1.04-.75c.69-.47,1.71-1.16,3.1-1.9,1.38-.74,3.11-1.59,5.26-2.18,1.07-.29,2.26-.51,3.55-.47,1.28.04,2.71.45,3.86,1.41,1.16.96,1.89,2.38,2.28,3.85.4,1.48.52,3.03.54,4.61-.06,1.54-.12,3.13-.18,4.75,0,.78.02,1.57.02,2.37.05.79.1,1.6.2,2.4.22,1.57.62,3.18,1.46,4.34.4.61.97.98,1.59,1.26.34.07.66.23,1.04.23.19.01.37.04.56.05l.59-.03c3.2-.22,6.47-1.98,10.14-2.7.93-.16,1.88-.31,2.88-.27.99-.02,2.04.25,3.01.7.45.3.94.56,1.29.98.18.2.39.38.54.59l.41.66c.52.89.81,1.83,1,2.76.13.47.16.92.22,1.38.05.46.12.92.12,1.37l.03,1.35v1.29c-.02,1.72.03,3.36.2,4.99.16,1.61.45,3.18,1.05,4.51.6,1.32,1.57,2.32,2.86,2.81,1.29.49,2.73.59,4.13.57,1.44-.01,2.85-.03,4.21.02,2.7.11,5.26.44,7.29,1.47.25.13.5.27.74.4.23.15.44.33.65.49.45.29.75.73,1.09,1.08.29.39.51.82.72,1.21.14.42.27.83.4,1.21.1.79.24,1.5.16,2.11-.02.61-.05,1.13-.14,1.54-.15.83-.22,1.27-.22,1.27,0,0,.04-.44.12-1.28.06-.41.05-.93.01-1.53.02-.6-.16-1.27-.3-2.02-.14-.35-.29-.72-.44-1.11-.23-.34-.45-.72-.73-1.06-.33-.3-.61-.68-1.05-.92-.2-.13-.4-.28-.62-.4-.23-.1-.46-.21-.7-.32-.96-.4-2.06-.67-3.24-.8-1.18-.16-2.44-.19-3.76-.2-1.32.01-2.7.09-4.14.17-1.48.07-3.07.03-4.69-.51-1.63-.53-3.07-1.9-3.82-3.5-.79-1.59-1.1-3.31-1.32-5.01-.21-1.7-.29-3.46-.31-5.18-.02-1.76-.05-3.39-.38-5-.32-1.59-1.06-3-2.27-3.66-1.26-.62-2.94-.54-4.59-.21-1.67.33-3.32.87-5.02,1.44-1.71.56-3.47,1.11-5.41,1.23l-.73.03c-.25-.01-.5-.05-.75-.07-.5-.02-1.01-.21-1.5-.36-.96-.42-1.86-1.09-2.4-1.94-1.14-1.67-1.48-3.51-1.7-5.22-.09-.87-.12-1.72-.16-2.57.01-.84.03-1.68.04-2.51.11-1.6.22-3.16.33-4.68.03-1.49-.05-2.93-.34-4.26-.29-1.32-.86-2.52-1.75-3.32-.88-.81-2.03-1.2-3.17-1.32-1.15-.12-2.28.02-3.31.23-2.09.44-3.84,1.17-5.25,1.81-2.82,1.31-4.32,2.3-4.32,2.3Z"/>
                </g>
              </g>
            </g>
            <g>
              <path class="cls-3" d="m102.61,93.49c.22.43.41.86.59,1.29.19.42.4.83.57,1.25.2.41.42.81.59,1.22l.63,1.18.67,1.13c.26.35.49.72.73,1.08l.79,1.02c.28.32.58.63.85.96l.79.94-.94.6c-.56.36-1.15.69-1.73,1.02-.57.35-1.18.64-1.77.96-1.21.6-2.43,1.18-3.75,1.62.92-1.04,1.93-1.94,2.95-2.81.52-.42,1.03-.86,1.58-1.26.54-.4,1.07-.81,1.62-1.19l-.15,1.54c-.35-.35-.68-.72-1.02-1.08l-.88-1.19c-.25-.43-.5-.85-.73-1.28l-.58-1.34-.43-1.38c-.12-.47-.19-.94-.28-1.41-.07-.48-.09-.96-.14-1.43,0-.47,0-.94.04-1.42Z"/>
              <path class="cls-3" d="m90.46,113.73s1.38.93,3.49,2.04c.53.27,1.11.55,1.73.82.62.27,1.28.52,1.96.76.68.25,1.41.41,2.13.59.73.15,1.48.28,2.23.3.75.06,1.5.05,2.23-.03.73-.1,1.45-.19,2.13-.4.35-.08.67-.2,1-.31.33-.1.65-.22.95-.36.61-.25,1.17-.56,1.7-.82.5-.32.99-.56,1.39-.84.4-.28.78-.49,1.06-.71.58-.42.93-.65.93-.65,0,0-.22.35-.65.94-.2.3-.5.63-.84,1.01-.32.4-.76.78-1.23,1.21-.49.4-1.03.85-1.67,1.21-.31.2-.64.39-.99.56-.34.19-.71.34-1.1.47-.76.29-1.58.52-2.44.64-.85.12-1.73.17-2.61.11-1.75-.13-3.44-.58-4.89-1.26-1.47-.65-2.7-1.49-3.67-2.27-1.96-1.59-2.85-3.01-2.85-3.01Z"/>
              <path class="cls-6" d="m105.6,84.57s.09-.43.38-1.13c.3-.69.79-1.66,1.61-2.7.81-1.04,1.95-2.14,3.45-3.02.76-.42,1.59-.81,2.49-1.05.9-.25,1.86-.4,2.82-.4.96,0,1.91.13,2.81.37.89.25,1.73.59,2.48,1,.76.4,1.42.88,2.02,1.34.57.5,1.11.97,1.54,1.46.45.47.8.95,1.11,1.38.32.41.55.81.73,1.14.37.65.55,1.05.55,1.05,0,0-.4-.19-1.04-.55-.31-.19-.71-.39-1.14-.63-.43-.24-.92-.51-1.46-.77-.52-.29-1.1-.54-1.69-.83-.61-.25-1.23-.52-1.88-.73-.65-.22-1.32-.38-1.99-.52-.67-.1-1.35-.2-2.03-.18-.68-.03-1.35.08-2.01.19-.66.13-1.31.33-1.95.54-1.26.47-2.43,1.09-3.43,1.71-1.01.6-1.83,1.21-2.43,1.63-.59.44-.93.7-.93.7Z"/>
              <path class="cls-6" d="m72.41,84.76s.02-.11.08-.32c.06-.2.14-.51.3-.87.14-.38.36-.81.63-1.3.3-.47.61-1.03,1.07-1.56.42-.56.98-1.08,1.59-1.63.31-.27.67-.49,1.03-.74.18-.12.37-.25.55-.37.2-.1.4-.2.61-.3.41-.19.83-.41,1.28-.57.46-.13.92-.26,1.4-.38.47-.15.96-.16,1.45-.2.49-.02.99-.1,1.48-.06l1.46.17c.24.03.48.06.72.1l.68.21c.89.29,1.81.52,2.56.98.76.42,1.53.79,2.16,1.26.62.48,1.2.95,1.71,1.39.53.42.92.91,1.28,1.33.36.41.65.79.89,1.1.48.62.72,1,.72,1,0,0-.44-.15-1.16-.45-.36-.15-.79-.33-1.26-.56-.48-.22-.99-.49-1.6-.7-.59-.23-1.21-.49-1.86-.77-.64-.28-1.36-.43-2.06-.69-.69-.3-1.45-.35-2.17-.55l-.55-.13-.56-.04-1.11-.11c-.37-.05-.73.02-1.1.02-.36.03-.74-.02-1.09.08-.35.07-.71.12-1.06.17-.35.07-.68.21-1.02.29l-.51.14-.48.2c-.32.14-.64.25-.94.4-.59.32-1.18.59-1.69.93-.54.3-.99.65-1.42.93-.39.32-.79.57-1.07.82-.29.24-.54.43-.69.57-.16.14-.25.21-.25.21Z"/>
              <path class="cls-6" d="m87.01,93.14c0,2.76-.76,5-1.71,5s-1.71-2.24-1.71-5,.76-5,1.71-5,1.71,2.24,1.71,5Z"/>
              <path class="cls-6" d="m116.81,92.46c0,2.76-.76,5-1.71,5s-1.71-2.24-1.71-5,.76-5,1.71-5,1.71,2.24,1.71,5Z"/>
            </g>
          </g>
        </g>
      </g>
    </g>
  </g>
</svg>