<?xml version="1.0" encoding="UTF-8"?>
<svg id="Layer_1" data-name="Layer 1" xmlns="http://www.w3.org/2000/svg" viewBox="0 0 322.64 77.88">
  <defs>
    <style>
      .cls-1 {
        fill: #0d2464;
      }
    </style>
  </defs>
  <g id="Layer_1-2" data-name="Layer 1-2">
    <path class="cls-1" d="m295.6,0c1.87,1.13,3.82,2.17,5.62,3.38,4.21,2.75,7.58,6.61,9.75,11.15,1.13,2.52,1.69,5.25,1.64,8-.04,8.18,0,16.37,0,24.58v.43h-7.05c2.02-.95,2.39-2.62,2.39-4.49,0-6.82-.06-13.66,0-20.48.03-3.31-1.03-6.54-3.01-9.19-2.39-3.26-5.46-5.96-8.99-7.92-.2-.1-.44-.1-.64,0-4.54,2.62-8.36,5.96-10.75,10.74-.86,1.69-1.31,3.56-1.31,5.46v21.12c0,2.67.59,3.61,2.7,4.72h-7.34v-25.51c.06-4.24,1.51-8.35,4.12-11.69,2.81-3.67,6.36-6.71,10.41-8.92l2.34-1.37h.12Z"/>
    <path class="cls-1" d="m295.49,69.58c1.45-1.38,2.96-2.73,4.37-4.15,2.44-2.44,4.83-4.94,7.23-7.39.23-.2.53-.31.83-.31h10.11v-17.92c0-6.29-.04-12.57,0-18.85.05-5.18-2.17-9.19-6.11-12.44l-1.9,1.76-2.8-3.71,4.34-4.15c1.07.81,2.17,1.59,3.2,2.44,2.19,1.74,4.03,3.88,5.44,6.3,1.57,2.7,2.4,5.76,2.41,8.88.03,11.16.03,22.32,0,33.48v8.8h-12.76c-.35.02-.67.15-.93.39-4.4,4.48-8.79,8.98-13.17,13.48-.07.07-.12.15-.17.24-.66-.64-1.27-1.21-1.87-1.82l-11.57-11.87c-.28-.3-.68-.47-1.1-.45h-12.58V19.85c.05-4.06,1.46-7.99,4.01-11.15,2-2.46,4.38-4.59,7.06-6.29l4.34,4.1-2.83,3.69-1.87-1.73c-1.55,1.31-2.88,2.86-3.93,4.61-1.43,2.38-2.15,5.11-2.08,7.88v36.76h9.82c.53-.03,1.05.18,1.4.58,3.6,3.72,7.21,7.41,10.84,11.1.12.13.22.27.33.41-.04-.07-.06-.15-.08-.23Z"/>
    <path class="cls-1" d="m305.07,54.44c-2.39-2.38-4.68-4.66-6.96-6.95-.14-.16-.22-.36-.22-.57v-18.8c0-1.96-.04-3.92,0-5.87.05-3.42.82-6.63,2.96-9.4.22-.3.48-.59.72-.87l.18-.22c1.06,1.06,1.97,2.26,2.73,3.55.05.18.02.36-.09.51-1.26,1.74-1.91,3.86-1.84,6.01-.04,7.66,0,15.33,0,23-.01.35.13.7.4.93.72.69,1.68,1.29,2.03,2.17s.1,1.96.1,2.96v3.61-.06Z"/>
    <path class="cls-1" d="m286.42,54.16v-6.29c.03-.21.13-.4.28-.55.64-.67,1.55-1.24,1.87-2.05s.09-1.85.09-2.79v-20.29c.1-2.17-.5-4.31-1.7-6.12-.12-.18-.26-.35-.48-.64l2.86-3.76c2.12,2.1,3.44,4.87,3.72,7.84.25,3.47.24,6.96.26,10.45v16.71c.01.37-.14.74-.41.99-2,1.98-3.98,3.98-5.98,5.96-.11.17-.26.3-.51.52Z"/>
  </g>
  <path class="cls-1" d="m13.55,37.59c.08-.09.18-.15.29-.17.13-.03.26-.05.39-.05.13,0,.26.02.38.06.09.02.18.08.23.16-.13.21-.21.35-.24.41.77.32,1.52.69,2.25,1.1.59.25.98.81,1,1.45,0,.2-.06.39-.15.56-.51,1.51-1.49,2.82-2.81,3.72-1.29.54-2.63.96-4,1.25-1.76.35-3.41,1.09-4.84,2.17-.9.79-1.6,1.77-2.05,2.87-.38.98-.72,1.98-1,3-.39,1.55-.67,3.14-.84,4.73-.27,2.18-.55,5.08-.84,8.69-.29,3.61-.51,6.24-.65,7.89-.11,1.63-.22,2.45-.35,2.45s-.3-.7-.32-2c0-.67.06-2.84.18-6.52s.33-6.92.64-9.73c.21-2.45.68-4.87,1.39-7.23.2-.72.47-1.42.8-2.09.59-1.3,1.34-2.51,2.24-3.62.5-.65,1.06-1.26,1.67-1.81,1.08-.95,2.25-1.8,3.5-2.51l3.13-4.78Z"/>
  <path class="cls-1" d="m14.6,36.3c.48-.59,1.32-1.51,2.52-2.74.33-.24.56-.6.63-1-.18-.6-.39-.95-.63-1.05l-.63.27c-.22.09-.46.14-.7.14-.48.03-.95-.15-1.29-.49-.29-.31-.42-.75-.34-1.17.26-1.09.68-2.14,1.26-3.1.78-1.38,1.43-2.07,1.94-2.07.86.14,1.64.61,2.16,1.31.61.98.9,2.11.83,3.26-.01,1.09-.27,2.17-.75,3.15-.57,1.07-1.4,1.98-2.43,2.62-.52.39-1,.81-1.46,1.27l-.87.87c-.21.12-.45.17-.69.16-.21-.03-.41-.08-.6-.16l1.05-1.27Zm.24-23.5c.24-.77.58-1.51,1-2.19.67-1.24,1.07-1.86,1.22-1.86s.67.08,1.2.59c.44.41.84.86,1.2,1.35.33-.54.69-1.14,1.08-1.8.4-.66.66-1,.79-1,.58.1,1.1.42,1.45.89.47.44.78,1.02.88,1.66-.07.8-.39,1.57-.9,2.19-.58.83-1,1.24-1.28,1.24s-.5-.24-1-.71c-.39-.39-.8-.76-1.24-1.09-.88,1.77-1.57,2.65-2.09,2.65-.22-.05-.41-.16-.56-.32l-1.06-.87c-.45-.39-.69-.63-.69-.73Z"/>
  <path class="cls-1" d="m48.93,34.14c-.13.82-.38,1.62-.74,2.37-.19.51-.54.95-1,1.26-.42.19-.86.31-1.32.35-.27.39-.61.73-1,1-.49.32-1.04.51-1.62.57,0,0-.08.13-.15.39-.28,2.74-.92,5.43-1.89,8-.71,1.8-1.63,3.52-2.75,5.1-2.62,3.54-5.77,5.33-9.44,5.37-1.71,0-3.34-.68-4.54-1.9-1.19-1.34-1.83-3.09-1.77-4.88.14-3.81,1.27-7.52,3.29-10.76.42-.77.67-1,.75-.72.08.28.08.57,0,.85-1.28,2.27-2.03,4.79-2.21,7.38-.01,1.4.62,2.72,1.71,3.6,1.19.86,2.63,1.3,4.09,1.25,2.14,0,4.23-.59,6.07-1.67,1.41-.94,2.59-2.17,3.47-3.62,1.28-2,1.88-4.81,1.8-8.35v-1.53c-.07-.79.52-1.49,1.31-1.56.07,0,.15,0,.22,0,.25,0,.49.03.73.08.17.04.35.06.53.07.52.03,1.03-.17,1.4-.55.31-.31.58-.66.79-1.05.06-.1.31-.13.73-.1.27,0,.51-.13.65-.36.16-.25.29-.51.39-.78.16-.39.33-.55.51-.49s.06.26,0,.68Z"/>
  <path class="cls-1" d="m59.22,37.54c-.08.81-.25,1.6-.49,2.38-.32,1.15-.73,2.41-1.24,3.77-.38,1.06-.83,2.09-1.35,3.08-.31.61-.75,1.15-1.27,1.59-.68.47-1.44.81-2.24,1-.81.25-1.64.45-2.47.61-.39.08-.78.13-1.18.16-.16,0-.26-.08-.29-.19s0-.26.14-.44c.38-.44.84-.8,1.35-1.07.72-.45,1.56-1,2.51-1.68.74-.49,1.41-1.09,2-1.76.53-.7.99-1.46,1.37-2.26.51-1,1-2,1.39-3s.71-1.72.88-2.09.38-.55.59-.53.3.14.3.43Z"/>
  <path class="cls-1" d="m69.62,29.19c0,1.16-.06,2.22-.08,3.16,0,.8-.05,1.59-.14,2.38-.1,1.26-.37,2.51-.8,3.7-.27.74-.6,1.46-1,2.15-.18.27-.37.52-.57.77-.18.17-.32.22-.42.16-.1-.06-.14-.18-.09-.28,0,0,.09-.52.29-1.47.19-.91.31-1.83.36-2.75.05-.89.05-2.15,0-3.78-.05-1.24,0-2.48.12-3.72.06-.53.18-1.05.33-1.56.15-.53.32-1.06.52-1.58s.4-1,.62-1.47.41-.87.59-1.22.28-.32.39-.27c.11.04.17.16.15.27-.06.3-.1.6-.11.91,0,.48-.08,1-.11,1.6s-.06,1.17-.09,1.74.04.98.04,1.26Z"/>
  <path class="cls-1" d="m69.4,48.43c-.25.34-.55.64-.88.9-.31.22-.65.4-1,.55-.35.14-.72.26-1.09.34l-1.18.28-1.6.39c-.39.11-.79.13-1.19.05,0-.23.27-.51.8-.85l1.48-.94c.5-.31,1-.63,1.51-.93,1.06-.7,2.02-1.54,2.86-2.5.42-.5.8-1.03,1.14-1.58.18-.26.45-.71.8-1.34l1.05-2.14c.2-.42.43-.83.7-1.21.21-.31.41-.45.58-.44s.21.25.15.49c-.18.53-.29.88-.34,1-.2.58-.33,1.19-.39,1.8l-.19.56c-.39.87-.8,1.7-1.22,2.47-.6,1.07-1.27,2.11-1.99,3.1Z"/>
  <path class="cls-1" d="m72.82,42.25c0,.58.16,1.15.49,1.63.24.45.7.73,1.21.75.1,0,.2-.08.29-.24.15-.35.28-.72.39-1.09.34-.93.62-1.39.85-1.39.28.07.55.19.8.34.55.45.84,1.14.78,1.85-.04,1.29-.43,2.54-1.14,3.62-1,1.62-2.11,2.42-3.47,2.42-.49.02-.97-.16-1.34-.48-.43-.38-.74-.88-.9-1.43-.14-.4-.25-.81-.34-1.22-.01-.13-.01-.26,0-.39.08-.43.19-.85.33-1.27.16-.46.34-.9.55-1.34.2-.4.43-.78.71-1.13.21-.27.48-.49.79-.63Z"/>
  <path class="cls-1" d="m92.42,36.3c.17-.07.34-.13.52-.17l.52-.09c.29.38.5.82.61,1.28.09.42.12.86.09,1.29-.03.42-.11.83-.25,1.23-.13.37-.28.73-.45,1.08-.33-.04-.67-.06-1-.05-.49,0-.98.08-1.45.22-.66.21-1.31.47-1.94.77-1.16.63-2.18,1.49-3,2.53-.8,1.02-1.76,2.32-2.89,3.9-1.02,1.46-2.17,2.82-3.43,4.08-.9.91-1.87,1.75-2.89,2.53-.76.55-1.47,1-2.12,1.4-.67.38-1.36.71-2.08,1l-.25.1c-.13.06-.26.1-.39.14-.21.12-.47.12-.68,0,0-.08,0-.23.22-.46.46-.41.94-.8,1.44-1.16.91-.6,1.79-1.24,2.63-1.93,1.07-.87,2.07-1.82,3-2.84,1.09-1.19,2.07-2.48,2.93-3.85.44-.58.85-1.19,1.24-1.82,1.44-2.09,2.37-3.38,2.79-3.88,1.03-1.32,2.23-2.5,3.57-3.5,1.01-.73,2.1-1.34,3.26-1.8Zm-5.32-9.2c.17-.82.48-1.6.91-2.32.61-1.19,1-1.78,1.18-1.78.35-.15.87.12,1.55.81.51.42.89.98,1.09,1.62-.1.8-.39,1.57-.85,2.23-.56,1-1,1.46-1.23,1.46-.1-.05-.44-.27-1-.65s-1-.66-1.28-.86c-.2-.09-.34-.29-.37-.51Z"/>
  <path class="cls-1" d="m82.78,64.28c.66-1.25,1.07-1.85,1.22-1.85s.68.08,1.2.59c.44.41.84.86,1.2,1.35l1.09-1.8c.39-.67.65-1,.78-1,.58.09,1.1.41,1.45.88.48.44.79,1.03.89,1.67-.07.8-.39,1.56-.9,2.18-.59.83-1,1.24-1.29,1.24s-.5-.24-1-.7c-.38-.4-.8-.77-1.24-1.1-.87,1.77-1.57,2.65-2.09,2.65-.21-.05-.41-.16-.56-.32l-1-.87c-.48-.39-.72-.63-.72-.73.23-.77.55-1.51.97-2.19Zm13-23.61c.52-.23.98-.57,1.35-1,.53-.56,1.02-1.15,1.48-1.77.27-.35.42-.78.42-1.22.01-.38-.14-.74-.42-1-.19.23-.84.3-1.94.22-1.06-.08-2.13-.01-3.18.2-.32.35-.53.78-.61,1.24-.11.53-.15,1.06-.12,1.6.03.48.11.95.24,1.41.13.4.3.61.49.63.22.03.44.05.66.06.29,0,.57-.02.85-.09.26-.06.51-.16.75-.28h.03Z"/>
  <path class="cls-1" d="m106.23,35.77l-.7,1.89c-.28.7-.45,1.14-.54,1.34s-.33.41-.51.41-.14-.08-.14-.24c-.01-.15-.01-.31,0-.46.07-.42.17-.83.29-1.24.13-.62.19-1.26.19-1.89.02-.49-.16-.97-.48-1.34-.35-.37-.83-.57-1.34-.56-.52.03-1.01.24-1.38.61-1.12,1.1-2.16,2.3-3.09,3.57v-2.24c.42-.32.76-.73,1-1.19.48-.76,1.02-1.47,1.62-2.13.76-.87,1.85-1.38,3-1.44.6,0,1.18.23,1.63.64.27.25.51.54.7.85l.09.26c.03.09.06.17.11.25.07.15.11.31.14.48.02.15.02.31,0,.46,0,.15-.03.3-.08.44l-.51,1.53Z"/>
  <path class="cls-1" d="m106.48,26.74c0,.08.14.13.43.14l1.19-.12c.73-.08,1.54-.21,2.44-.4s1.41-.29,1.54-.33c.33-.06.49.11.49.51-.11.37-.29.71-.53,1l-.59.85c-.91.78-1.73,1.65-2.46,2.6-.79,1.01-1.49,2.09-2.08,3.23,0,.08-.08.14-.2.18-.14.04-.28.06-.42.06-.15,0-.29-.02-.43-.06-.11-.02-.21-.08-.26-.18.09-.26.21-.51.35-.75.24-.46.53-1,.89-1.59s.75-1.23,1.18-1.85c.36-.54.77-1.05,1.22-1.52-1.62.12-2.64.18-3.07.19-.29.01-.58,0-.86-.06-.16-.05-.31-.14-.44-.25-.1-.11-.15-.25-.14-.39.09-.47.28-.9.56-1.29.44-.74.99-1.41,1.62-2,.1.17.16.3.2.38-.01.38-.08.76-.2,1.12l-.43.53Zm.12,24.08c.03.22.16.41.36.51.28.2.7.49,1.28.87s.91.59,1,.64c.26,0,.67-.49,1.24-1.46.46-.66.75-1.43.85-2.23-.2-.63-.58-1.2-1.09-1.62-.68-.68-1.2-1-1.56-.81-.17,0-.57.6-1.17,1.79-.44.71-.74,1.49-.91,2.31Z"/>
  <path class="cls-1" d="m118.71,16.98c.18,0,.25.08.2.24-.26.51-.56,1.01-.88,1.49-.32.54-.68,1.05-1.07,1.54-.25.31-.56.57-.92.76-.14.11-1.43.75-3.86,1.91-1.91.84-3.69,1.96-5.27,3.33-.1-.18-.16-.37-.18-.57-.03-.32.03-.64.18-.93.5-.49,1.18-1.08,2-1.76s1.8-1.39,2.84-2.1,2.14-1.41,3.28-2.08c1.07-.63,2.17-1.21,3.31-1.71l.37-.12Zm-7.62-11.55c.24-.77.58-1.5,1-2.18.67-1.25,1.07-1.87,1.22-1.87s.67.08,1.2.59c.44.41.84.86,1.2,1.35.33-.53.69-1.13,1.08-1.8.4-.66.66-1,.79-1,.57.11,1.08.43,1.42.91.48.44.79,1.02.88,1.66-.07.8-.39,1.56-.9,2.18-.58.83-1,1.24-1.28,1.24s-.5-.23-1-.7c-.38-.4-.8-.76-1.24-1.09-.88,1.76-1.57,2.64-2.09,2.64-.22-.04-.41-.15-.56-.31l-1.06-.88c-.42-.44-.66-.68-.66-.74Z"/>
  <path class="cls-1" d="m126.68,43.32c-.4,1.21-.93,2.37-1.58,3.47-.3.52-.68.99-1.14,1.39-.39.23-.81.42-1.24.57-.55.2-1.39.48-2.51.85-.65.24-1.32.42-2,.54-.13,0-.19,0-.19-.09s.54-.76,2-1.75,2.43-1.64,2.86-1.94c.5-.38.94-.84,1.31-1.35.45-.6.79-1.28,1-2-.24-.04-.48.01-.69.13-.21.11-.45.17-.69.18-.56,0-1.1-.2-1.51-.58-.37-.3-.56-.77-.51-1.24.07-.27.16-.59.28-1,.22-.59.48-1.17.77-1.74.33-.7.72-1.37,1.17-2,.25-.43.69-.72,1.18-.78.66,0,1.28.31,1.66.85.44.57.68,1.28.67,2,0,.4-.02.8-.07,1.2-.05.4-.1.73-.16,1s-.14.6-.24,1-.24.94-.37,1.29Z"/>
  <path class="cls-1" d="m154.26,30.43c-.06.4-.16.8-.3,1.18-.14.38-.37.91-.68,1.59s-.51,1.06-.57,1.16c-.26.41-.49.61-.68.61s-.28-.19-.39-.28c-.09-.08-.2-.12-.32-.13-.56.04-1.11.21-1.6.49-.79.44-1.53.97-2.19,1.59-.68.6-1.3,1.27-1.85,2-.33.37-.56.82-.67,1.31-.02.31.1.62.34.83.31.21.65.38,1,.51.35.12.69.28,1,.49.61.55.91,1.37.8,2.18-.04,1.75-.32,3.49-.85,5.16-.5,1.76-1.25,3.45-2.23,5-.5.71-1.05,1.37-1.65,2-.6.64-1.27,1.21-2,1.7-1.43.93-3.1,1.41-4.81,1.38-1.8.09-3.54-.69-4.69-2.08-.46-.67-.8-1.42-1-2.21-.18-.72-.27-1.47-.28-2.21,0-.87.07-1.75.2-2.61.13-.87.34-1.73.61-2.57.42-1.37.93-2.7,1.53-4,.59-1.29,1.08-2.33,1.45-3.13l1.14-2.43c.13-.27.27-.54.42-.8s.27-.39.39-.39.24.13.25.39c.02.2,0,.4-.08.59-.18.46-.34.86-.47,1.17s-.32.78-.58,1.37l-.84,1.95c-.3.69-.54,1.27-.74,1.72-.78,1.8-1.26,3.72-1.43,5.68-.05,1.22.48,2.39,1.42,3.16,1.16.85,2.57,1.26,4,1.17,1.44,0,2.85-.35,4.13-1,.93-.45,1.77-1.07,2.48-1.82.58-.61,1.09-1.28,1.52-2,.31-.51.49-1.09.52-1.69,0-.31-.23-.54-.69-.68s-.8-.25-1-.29c-.24-.07-.47-.16-.69-.27-.45-.2-.84-.52-1.14-.91-.28-.44-.42-.96-.39-1.49.07-1.26.39-2.5.93-3.65.68-1.56,1.57-3.02,2.64-4.34.77-1.01,1.61-1.95,2.52-2.84.41-.38.93-.8,1.56-1.28.58-.45,1.2-.86,1.84-1.23.53-.34,1.12-.58,1.73-.72.16-.02.3.07.36.22.07.14.08.3.03.45Z"/>
  <path class="cls-1" d="m162.61,37.54c-.08.81-.25,1.6-.49,2.38-.32,1.15-.73,2.41-1.24,3.77-.38,1.06-.83,2.09-1.35,3.08-.31.61-.75,1.15-1.28,1.59-.67.47-1.43.81-2.23,1-.81.25-1.64.46-2.48.61-.39.08-.78.13-1.17.16-.16,0-.26-.08-.29-.19s0-.26.14-.44c.38-.44.83-.81,1.35-1.08.72-.45,1.56-1,2.51-1.68.74-.49,1.41-1.09,2-1.76.53-.7.99-1.46,1.37-2.26.51-1,1-2,1.39-3s.71-1.72.88-2.09.38-.55.59-.53.3.15.3.44Zm-2-10.32c.17-.82.48-1.6.91-2.32.61-1.19,1-1.78,1.18-1.78.36-.15.88.12,1.56.81.51.42.89.99,1.09,1.62-.1.8-.39,1.57-.85,2.23-.57,1-1,1.46-1.24,1.46-.1-.05-.43-.26-1-.65s-1-.66-1.27-.86-.42-.3-.42-.51h.04Z"/>
  <path class="cls-1" d="m167.91,40.99c-.03.56-.1,1.11-.2,1.66-.08.44-.21.86-.39,1.27-.13.31-.35.58-.62.77-.27.17-.59.24-.91.18,0-1.26.15-3,.4-5.28s.63-4.75,1.13-7.49c.26-.79.79-2.19,1.58-4.2.08-.19.17-.27.26-.24s.13.11.13.24c-.05.99-.25,2.88-.61,5.66-.36,2.78-.58,4.69-.65,5.73-.03,1.04-.12,1.6-.12,1.7Z"/>
  <path class="cls-1" d="m167.91,41.01v1.29c.02.53.11,1.05.27,1.56.2.5.55.93,1,1.23.51.35,1.13.52,1.75.49.87.04,1.72-.25,2.38-.83.47-.49,1-.91,1.58-1.26.19-.08.41-.1.61-.05.24.05.49.07.74.05.3,0,.57-.33.83-1,.12-.39.29-.76.53-1.09.11-.04.24-.04.35,0,.25.1.51.16.77.19.28,0,.52-.18.73-.56.16-.32.3-.66.41-1,.16-.46.29-.7.39-.7s.2.15.2.44c-.01,1.13-.34,2.24-.95,3.2-.67,1-1.34,1.56-2,1.56-.43.63-.69,1-.75,1-.27.41-.71.68-1.19.75-.29-.05-.59-.08-.89-.09-.26,0-.52.07-.76.19-.73.55-1.36,1.23-1.85,2-.64,1.03-1.73,1.68-2.93,1.77-1.07.05-2.07-.56-2.53-1.53-.53-1.16-.79-2.43-.75-3.71.21-1,.51-1.97.9-2.91.3-.78.61-1.17.92-1.17.03-.01.12.05.24.18Z"/>
  <path class="cls-1" d="m189,43.32c-.4,1.21-.93,2.37-1.58,3.47-.3.52-.68.99-1.14,1.39-.39.23-.81.42-1.24.57-.55.2-1.39.48-2.51.85-.65.24-1.32.42-2,.54-.13,0-.19,0-.19-.09s.54-.76,2-1.75,2.43-1.64,2.86-1.94c.5-.38.94-.84,1.31-1.35.45-.6.79-1.28,1-2-.24-.04-.48.01-.69.13-.21.11-.45.17-.69.18-.56,0-1.1-.2-1.51-.58-.37-.3-.56-.77-.51-1.24.07-.27.16-.59.28-1,.22-.59.48-1.17.77-1.74.32-.7.72-1.37,1.17-2,.25-.43.69-.72,1.18-.78.66,0,1.28.31,1.66.85.44.57.68,1.28.67,2,0,.4-.02.8-.07,1.2,0,.4-.1.73-.16,1s-.14.6-.24,1-.23.94-.37,1.29Z"/>
  <path class="cls-1" d="m188.45,41.5c-.06-.43-.14-.86-.24-1.29-.04-.21-.05-.43-.05-.65,0-.39.37-.72,1.11-1,.35-.17.66-.4.93-.68.29-.23.51-.55.63-.9.03-.22.03-.43,0-.65,0-.2,0-.46-.08-.8-.02-.24-.02-.49,0-.73-.02-.15-.02-.31,0-.46,0-.2.7-1.78,2-4.76.17-.1.27-.1.32,0,.06.19.08.38.07.58l-.05,3.84c-.02,1.36-.34,2.69-.94,3.91-.41.91-.93,1.77-1.54,2.56-.43.48-.88,1-1.35,1.42-.38.73-.67.6-.81-.39Zm1.38-21.17c.17-.82.48-1.6.91-2.32.61-1.19,1-1.79,1.18-1.79.36-.14.87.13,1.55.82.51.42.89.98,1.1,1.61-.1.8-.4,1.57-.85,2.24-.57,1-1,1.45-1.24,1.45-.1,0-.43-.26-1-.64l-1.27-.86c-.21-.16-.38-.33-.38-.51h0Z"/>
  <path class="cls-1" d="m216.27,40.14c-.16,4.71-1.7,9.27-4.42,13.11-2.62,3.55-5.77,5.34-9.44,5.37-1.7,0-3.34-.67-4.54-1.88-1.19-1.35-1.82-3.1-1.77-4.9.13-3.8,1.25-7.51,3.25-10.75.42-.78.67-1,.75-.74.09.28.09.58,0,.86-1.27,2.27-2.03,4.79-2.21,7.38-.02,1.38.59,2.68,1.66,3.55,1.21.85,2.66,1.31,4.14,1.31,2.14,0,4.23-.59,6.07-1.68,1.86-1.22,3.27-3.02,4-5.12.33-.96.48-1.98.44-3v-3.33c.08-1.02.29-2.03.63-3,.25-.8.54-1.58.88-2.34.24-.49.44-.73.6-.73s.16.12.14.37,0,.74-.07,1.45-.07,2.13-.11,4.07Zm-7.33,2.38c.06.36.04.72-.07,1.07-.14.45-.32.89-.55,1.3-.26.49-.6.94-1,1.32-.17.2-.39.34-.65.39-.1,0-.32-.14-.67-.43l-1-.77c-.28-.24-.52-.45-.72-.65s-.31-.35-.31-.48c.21-.44.37-.77.46-1,.33-.73.61-1.3.84-1.72s.6-1.05,1.11-1.87c.29.24.65.53,1.08.86.37.27.71.58,1,.94.25.3.42.66.48,1.04h0Z"/>
  <path class="cls-1" d="m220.77,40.99c-.03.56-.1,1.11-.2,1.66-.07.44-.2.87-.39,1.27-.13.31-.35.57-.62.77-.27.17-.59.24-.91.18,0-1.26.15-3,.4-5.28s.63-4.75,1.13-7.49c.26-.79.79-2.19,1.58-4.2.08-.19.17-.27.26-.24s.13.11.13.24c-.05.99-.26,2.88-.61,5.66-.35,2.78-.57,4.69-.65,5.73-.08,1.04-.12,1.6-.12,1.7Z"/>
  <path class="cls-1" d="m220.77,41.84c-.07.85.16,1.7.65,2.4.31.5.84.81,1.43.83.1,0,.26-.42.49-1.21.13-.51.35-1,.66-1.43.39-.15.71,0,1,.51.2.4.34.82.41,1.26,0,1.24-.27,2.46-.78,3.59-.72,1.56-1.7,2.33-2.93,2.33-.69,0-1.35-.29-1.8-.82-.48-.51-.81-1.14-.95-1.82-.14-.87-.21-1.75-.19-2.63,0-.47.07-.93.2-1.38.13-.45.31-.89.53-1.31.17-.34.41-.66.69-.92.16-.2.42-.3.67-.25l-.08.85Z"/>
  <path class="cls-1" d="m235.87,37.54c-.09.81-.26,1.6-.5,2.38-.31,1.15-.73,2.41-1.24,3.77-.38,1.05-.83,2.08-1.34,3.08-.32.61-.75,1.15-1.28,1.59-.67.47-1.43.81-2.23,1-.81.25-1.64.45-2.48.61-.39.08-.78.13-1.18.16-.16,0-.26-.08-.29-.19-.02-.16.04-.32.15-.44.37-.45.82-.81,1.34-1.08.73-.45,1.56-1,2.52-1.68.74-.5,1.41-1.09,2-1.76.53-.71.99-1.46,1.37-2.26.51-1,.97-2,1.38-3,.42-1,.71-1.72.89-2.09s.37-.55.58-.53.31.15.31.44Zm-2-10.32c.17-.82.48-1.6.91-2.32.61-1.19,1-1.78,1.18-1.78.35-.15.87.12,1.55.81.51.42.89.98,1.09,1.62-.1.8-.39,1.56-.84,2.23-.57,1-1,1.46-1.24,1.46-.1-.05-.44-.26-1-.65s-1-.66-1.28-.86c-.22-.08-.38-.28-.41-.51h.04Z"/>
  <path class="cls-1" d="m241.16,40.99c-.02.56-.08,1.11-.19,1.66-.08.44-.21.86-.39,1.27-.13.31-.35.57-.62.77-.27.17-.59.24-.91.18,0-1.26.15-3,.4-5.28s.63-4.75,1.13-7.49c.26-.79.78-2.19,1.58-4.2.08-.19.16-.27.25-.24.1.04.16.14.14.24-.05.99-.26,2.88-.61,5.66s-.57,4.69-.66,5.73c-.08,1.04-.12,1.6-.12,1.7Z"/>
  <path class="cls-1" d="m241.16,41.01c0,.59,0,1.02,0,1.29.02.53.11,1.05.26,1.56.2.5.55.93,1,1.23.51.35,1.12.52,1.74.49.87.05,1.73-.25,2.38-.83.47-.49,1-.91,1.58-1.26.2-.08.41-.1.62-.05.24.05.49.07.74.05.29,0,.57-.33.83-1,.11-.39.29-.76.53-1.09.11-.04.23-.04.34,0,.25.1.51.17.78.19.27,0,.52-.18.73-.56.16-.32.3-.66.41-1,.16-.46.29-.7.39-.7s.19.15.19.44c0,1.14-.34,2.24-.95,3.2-.67,1.04-1.33,1.56-2,1.56-.44.63-.69,1-.75,1-.28.4-.71.68-1.19.75-.29-.05-.59-.08-.89-.09-.26,0-.52.07-.76.19-.74.54-1.36,1.22-1.85,2-.64,1.03-1.73,1.68-2.94,1.77-1.07.05-2.07-.56-2.52-1.53-.54-1.16-.8-2.43-.76-3.71.22-.99.52-1.97.9-2.91.31-.78.62-1.17.93-1.17.1-.01.15.05.26.18Z"/>
</svg>